<svg height="512pt" viewBox="-143 0 512 512" width="512pt" xmlns="http://www.w3.org/2000/svg"><path d="m112.539062 512c-62.152343 0-112.539062-50.386719-112.539062-112.539062v-282.820313c0-5.015625 4.066406-9.082031 9.082031-9.082031h205.242188c5.941406 0 10.753906 4.816406 10.753906 10.757812v281.144532c0 62.152343-50.382813 112.539062-112.539063 112.539062zm0 0" fill="#3567c3"/><path d="m215.726562 107.558594h-38.640624c5.167968 0 9.355468 4.1875 9.355468 9.351562v282.550782c0 55.566406-40.273437 101.71875-93.222656 110.882812 6.277344 1.085938 12.734375 1.65625 19.320312 1.65625 62.15625 0 112.539063-50.386719 112.539063-112.539062v-282.546876c0-5.167968-4.1875-9.355468-9.351563-9.355468zm0 0" fill="#2d56a1"/><path d="m187.320312 107.558594h-149.558593v-28.867188c0-3.847656 3.121093-6.96875 6.96875-6.96875h135.621093c3.847657 0 6.96875 3.121094 6.96875 6.96875zm0 0" fill="#464646"/><path d="m158.378906 71.722656v35.835938h28.941406v-28.867188c0-3.847656-3.121093-6.96875-6.96875-6.96875zm0 0" fill="#333"/><path d="m166.441406 71.722656h-107.804687v-64.863281c0-3.789063 3.070312-6.859375 6.859375-6.859375h94.089844c3.785156 0 6.855468 3.070312 6.855468 6.859375zm0 0" fill="#b4aaaa"/><path d="m139.242188 0v71.722656h27.199218v-64.863281c0-3.789063-3.070312-6.859375-6.855468-6.859375zm0 0" fill="#9b9696"/><path d="m112.539062 454.5625c-15.023437 0-27.199218-12.179688-27.199218-27.203125v-235.164063c0-15.023437 12.175781-27.199218 27.199218-27.199218 15.023438 0 27.203126 12.175781 27.203126 27.199218v235.164063c0 15.023437-12.179688 27.203125-27.203126 27.203125zm0 0" fill="#72d1fb"/><path d="m112.539062 164.996094c-3.640624 0-7.109374.71875-10.28125 2.015625 9.921876 4.058593 16.914063 13.800781 16.914063 25.183593v235.164063c0 11.382813-6.992187 21.128906-16.914063 25.183594 3.171876 1.296875 6.640626 2.019531 10.28125 2.019531 15.023438 0 27.203126-12.179688 27.203126-27.203125v-235.164063c0-15.019531-12.179688-27.199218-27.203126-27.199218zm0 0" fill="#40c1fa"/><g fill="#72d1fb"><path d="m85.273438 24.222656v18.5625c0 4.265625 3.460937 7.726563 7.726562 7.726563 4.269531 0 7.726562-3.460938 7.726562-7.726563v-18.5625c0-4.265625-3.460937-7.726562-7.726562-7.726562s-7.726562 3.460937-7.726562 7.726562zm0 0"/><path d="m124.351562 24.222656v18.5625c0 4.265625 3.460938 7.726563 7.726563 7.726563 4.269531 0 7.726563-3.460938 7.726563-7.726563v-18.5625c0-4.265625-3.457032-7.726562-7.726563-7.726562-4.265625 0-7.726563 3.460937-7.726563 7.726562zm0 0"/></g></svg>